<mxfile host="app.diagrams.net" agent="Mozilla/5.0 (Windows NT 10.0; Win64; x64) AppleWebKit/537.36 (KHTML, like Gecko) Chrome/136.0.0.0 Safari/537.36" version="27.0.5">
  <diagram name="第 1 页" id="OYPPoNtJcvD3CVvJOCVI">
    <mxGraphModel dx="1426" dy="751" grid="1" gridSize="10" guides="1" tooltips="1" connect="1" arrows="1" fold="1" page="1" pageScale="1" pageWidth="827" pageHeight="1169" math="0" shadow="0">
      <root>
        <mxCell id="0" />
        <mxCell id="1" parent="0" />
        <mxCell id="WjDSU4Vnf71-LKj2FM2g-10" style="edgeStyle=orthogonalEdgeStyle;rounded=0;orthogonalLoop=1;jettySize=auto;html=1;entryX=0.5;entryY=0;entryDx=0;entryDy=0;" edge="1" parent="1" source="WjDSU4Vnf71-LKj2FM2g-1" target="WjDSU4Vnf71-LKj2FM2g-5">
          <mxGeometry relative="1" as="geometry" />
        </mxCell>
        <mxCell id="WjDSU4Vnf71-LKj2FM2g-1" value="get the 1st changeset" style="rounded=0;whiteSpace=wrap;html=1;" vertex="1" parent="1">
          <mxGeometry x="320" y="190" width="120" height="60" as="geometry" />
        </mxCell>
        <mxCell id="WjDSU4Vnf71-LKj2FM2g-3" style="edgeStyle=orthogonalEdgeStyle;rounded=0;orthogonalLoop=1;jettySize=auto;html=1;entryX=0.5;entryY=0;entryDx=0;entryDy=0;" edge="1" parent="1" source="WjDSU4Vnf71-LKj2FM2g-2" target="WjDSU4Vnf71-LKj2FM2g-1">
          <mxGeometry relative="1" as="geometry" />
        </mxCell>
        <mxCell id="WjDSU4Vnf71-LKj2FM2g-2" value="start" style="ellipse;whiteSpace=wrap;html=1;" vertex="1" parent="1">
          <mxGeometry x="340" y="90" width="80" height="50" as="geometry" />
        </mxCell>
        <mxCell id="WjDSU4Vnf71-LKj2FM2g-9" value="" style="edgeStyle=orthogonalEdgeStyle;rounded=0;orthogonalLoop=1;jettySize=auto;html=1;" edge="1" parent="1" source="WjDSU4Vnf71-LKj2FM2g-5" target="WjDSU4Vnf71-LKj2FM2g-8">
          <mxGeometry relative="1" as="geometry" />
        </mxCell>
        <mxCell id="WjDSU4Vnf71-LKj2FM2g-5" value="isCandidate" style="rhombus;whiteSpace=wrap;html=1;" vertex="1" parent="1">
          <mxGeometry x="315" y="280" width="130" height="60" as="geometry" />
        </mxCell>
        <mxCell id="WjDSU4Vnf71-LKj2FM2g-12" style="edgeStyle=orthogonalEdgeStyle;rounded=0;orthogonalLoop=1;jettySize=auto;html=1;entryX=0.5;entryY=0;entryDx=0;entryDy=0;" edge="1" parent="1" source="WjDSU4Vnf71-LKj2FM2g-8" target="WjDSU4Vnf71-LKj2FM2g-11">
          <mxGeometry relative="1" as="geometry" />
        </mxCell>
        <mxCell id="WjDSU4Vnf71-LKj2FM2g-8" value="id look up in private layer db" style="whiteSpace=wrap;html=1;" vertex="1" parent="1">
          <mxGeometry x="60" y="280" width="170" height="60" as="geometry" />
        </mxCell>
        <mxCell id="WjDSU4Vnf71-LKj2FM2g-11" value="matched" style="rhombus;whiteSpace=wrap;html=1;" vertex="1" parent="1">
          <mxGeometry x="80" y="390" width="130" height="60" as="geometry" />
        </mxCell>
      </root>
    </mxGraphModel>
  </diagram>
</mxfile>
